<?xml version="1.0" encoding="utf-8"?>
<!-- Generated by IcoMoon.io -->
<!DOCTYPE svg PUBLIC "-//W3C//DTD SVG 1.1//EN" "http://www.w3.org/Graphics/SVG/1.1/DTD/svg11.dtd">
<svg version="1.1" xmlns="http://www.w3.org/2000/svg" xmlns:xlink="http://www.w3.org/1999/xlink" width="512" height="512" viewBox="0 0 512 512">
<g id="icomoon-ignore">
</g>
<path fill="#000" d="M512 78.496c0 60.24-161.616 201.296-191.792 261.552v124.624c0 0.336-0.192 0.576-0.224 0.912v14.416c0 17.664-14.336 32-31.984 32h-64c-17.664 0-32-14.336-32-32v-14.384c-0.032-0.336-0.24-0.576-0.24-0.944v-124.624c-30.128-60.256-191.76-201.312-191.76-261.552h0.464c-0.096-0.672-0.464-1.248-0.464-1.888 0-34.256 114.672-76.608 256-76.608s256 42.352 256 76.608c0 0.64-0.368 1.216-0.48 1.888h0.48zM258.72 31.744c-124.016 0-226.944 19.92-226.944 56.448 0 36.512 102.928 72.080 226.944 72.080 124.032 0 220.96-35.568 220.96-72.080-0.016-36.528-96.928-56.448-220.96-56.448z"></path>
</svg>
