<?xml version="1.0" encoding="utf-8"?>
<!-- Generated by IcoMoon.io -->
<!DOCTYPE svg PUBLIC "-//W3C//DTD SVG 1.1//EN" "http://www.w3.org/Graphics/SVG/1.1/DTD/svg11.dtd">
<svg version="1.1" xmlns="http://www.w3.org/2000/svg" xmlns:xlink="http://www.w3.org/1999/xlink" width="512" height="512" viewBox="0 0 512 512">
<g id="icomoon-ignore">
</g>
<path fill="#000" d="M448.928 47.968c-10.48 0.048-22.288 0.176-38.016 0.544-13.168 0.32-25.52 7.84-23.408 16.528 16.352 78.88 16.48 158.672 2.144 237.552-1.824 8.688 9.792 16.224 22.336 16.528 15.008 0.368 26.576 0.496 36.992 0.544 8.56 0.032 14.992-7.136 15.024-15.968v-239.76c-0.064-8.832-6.432-16-15.072-15.968zM352 63.936h-1.616c-7.408-36.48-39.68-63.936-78.384-63.936h-128c-38.704 0-70.976 27.456-78.384 63.936h126.384c17.664 0 32 14.32 32 31.968h-128c-17.664 0-32 14.32-32 31.968s14.336 31.968 32 31.968h128v31.968h-144c-17.664 0-32 14.32-32 31.968s14.336 31.968 32 31.968h144v31.968h-144c-17.664 0-32 14.32-32 31.968s14.336 31.968 32 31.968h140l-2 23.984-10 79.936c0 30.896 25.072 55.936 56 55.936 30.944 0 56 6.928 56-23.984l9.136-55.936 6.848-47.808 16.016-104.048c0-1.664-0.24-2.944-0.56-4.128l0.56-3.872 14.624-9.6c0 0 1.376-4.112 1.376-6.384v-175.824c0-8.832-7.152-15.984-16-15.984z"></path>
</svg>
