<?xml version="1.0" encoding="utf-8"?>
<!-- Generated by IcoMoon.io -->
<!DOCTYPE svg PUBLIC "-//W3C//DTD SVG 1.1//EN" "http://www.w3.org/Graphics/SVG/1.1/DTD/svg11.dtd">
<svg version="1.1" xmlns="http://www.w3.org/2000/svg" xmlns:xlink="http://www.w3.org/1999/xlink" width="512" height="512" viewBox="0 0 512 512">
<g id="icomoon-ignore">
</g>
<path fill="#000" d="M122.352 209.104c1.84-8.704-9.808-16.24-22.336-16.544-15.008-0.368-26.576-0.496-36.992-0.544-8.56-0.032-14.976 7.152-15.024 15.984v240c0.048 8.832 6.448 16.016 15.072 15.984 10.48-0.048 22.288-0.176 38.032-0.544 13.152-0.32 25.504-7.84 23.392-16.544-16.352-78.96-16.48-158.832-2.144-237.792zM432 256h-144v-32h144c17.664 0 32-14.336 32-32s-14.336-32-32-32h-140l2-24.032 10-79.968c0-30.928-25.056-56-56-56-30.928 0-56-6.928-56 24l-9.152 56-6.832 47.856-16.016 104.144c0 1.648 0.24 2.944 0.56 4.128l-0.56 3.872-14.624 9.616c0 0-1.376 4.096-1.376 6.384v176c0 8.848 7.168 16 16 16h1.616c7.408 36.512 39.68 64 78.384 64h128c38.704 0 70.976-27.488 78.384-64h-126.384c-17.664 0-32-14.336-32-32h128c17.664 0 32-14.336 32-32s-14.336-32-32-32h-128v-32h144c17.664 0 32-14.336 32-32s-14.336-32-32-32z"></path>
</svg>
