<?xml version="1.0" encoding="utf-8"?>
<!-- Generator: Adobe Illustrator 18.1.0, SVG Export Plug-In . SVG Version: 6.00 Build 0)  -->
<svg version="1.1" id="Layer_1" xmlns="http://www.w3.org/2000/svg" xmlns:xlink="http://www.w3.org/1999/xlink" x="0px" y="0px"
	 viewBox="0 0 573.5 490.8" enable-background="new 0 0 573.5 490.8" xml:space="preserve">
<path fill="#D4145A" d="M471.8,362.2c13.1,2.5,12.2,23.4,27.8,26.4c12.9,2.5,18.5-10.9,37.6-11.7c14.1-0.6,32.8,5.8,35.9,17.6
	c3,11.3-9,24.1-21.2,29.3c-19.7,8.3-42.4-2.3-44.1,1.5c-1.6,3.5,20.3,9,26.1,24.9c3.9,10.6-0.1,24-9.8,32.2
	c-13.3,11.3-35.1,10.9-49,1.5c-15.1-10.3,5.5-32.6-8.2-49.8c-11.6-14.7-31.5-8.5-37.6-20.5C420.3,395.5,453,358.6,471.8,362.2z"/>
<path fill="#D4145A" d="M130.5,148.8C87.8,108.5,71.7,42.1,86.7,30.6c20.7-15.8,105.9,61.1,102.6,42.7c-9.7-54,51.3-131.4,83.3-4.7
	c5.6,22.1,57.2-164.7,86.8,14c3.8,23.1,28.1-64,47.9-64.5c20-0.4,53.8,62.3,36.4,105.8C413.1,200.7,218,231.4,130.5,148.8z"/>
<polygon fill="#D4145A" points="64.4,329.7 0,281.4 81.1,260.3 "/>
<path fill="#FCEE21" d="M430.6,426.9c-83.1,62.9-178.7,53.6-219.8,49.6c-56.7-5.5-100.8-9.8-126.4-41.3
	c-58.7-72.1-6.6-269,125.6-317.4C346.3,68,518.9,193.7,518.2,298C517.8,361,454.4,409,430.6,426.9z"/>
<ellipse fill="#D4145A" cx="189.3" cy="245.3" rx="23.1" ry="20"/>
</svg>
